<mxfile host="65bd71144e">
    <diagram id="Y2h1MKmkj0kIdMpcGdcu" name="Page-1">
        <mxGraphModel dx="322" dy="-5577" grid="1" gridSize="10" guides="1" tooltips="1" connect="1" arrows="1" fold="1" page="1" pageScale="1" pageWidth="827" pageHeight="1169" math="0" shadow="0">
            <root>
                <mxCell id="0"/>
                <mxCell id="1" parent="0"/>
                <mxCell id="3" value="" style="rounded=1;whiteSpace=wrap;html=1;" parent="1" vertex="1">
                    <mxGeometry x="615" y="7730" width="200" height="80" as="geometry"/>
                </mxCell>
                <mxCell id="4" value="" style="rounded=1;whiteSpace=wrap;html=1;" parent="1" vertex="1">
                    <mxGeometry x="250" y="7595" width="200" height="80" as="geometry"/>
                </mxCell>
                <mxCell id="6" value="&lt;p style=&quot;line-height: 150%&quot;&gt;&lt;font style=&quot;font-size: 30px&quot;&gt;Product&lt;/font&gt;&lt;/p&gt;" style="text;html=1;strokeColor=none;fillColor=none;align=center;verticalAlign=middle;whiteSpace=wrap;rounded=0;opacity=0;strokeWidth=12;" parent="1" vertex="1">
                    <mxGeometry x="655" y="7740" width="140" height="60" as="geometry"/>
                </mxCell>
                <mxCell id="7" value="&lt;p style=&quot;line-height: 150%&quot;&gt;&lt;font style=&quot;font-size: 30px&quot;&gt;User&lt;/font&gt;&lt;/p&gt;" style="text;html=1;strokeColor=none;fillColor=none;align=center;verticalAlign=middle;whiteSpace=wrap;rounded=0;opacity=0;strokeWidth=12;" parent="1" vertex="1">
                    <mxGeometry x="290" y="7605" width="140" height="60" as="geometry"/>
                </mxCell>
                <mxCell id="9" value="" style="rounded=1;whiteSpace=wrap;html=1;fillColor=#949494;" parent="1" vertex="1">
                    <mxGeometry x="250" y="7675" width="200" height="275" as="geometry"/>
                </mxCell>
                <mxCell id="10" value="" style="rounded=1;whiteSpace=wrap;html=1;fillColor=#949494;" parent="1" vertex="1">
                    <mxGeometry x="610" y="7815" width="200" height="375" as="geometry"/>
                </mxCell>
                <mxCell id="17" value="&lt;font style=&quot;font-size: 23px&quot;&gt;id_produit&lt;/font&gt;" style="text;html=1;align=center;verticalAlign=middle;whiteSpace=wrap;rounded=0;strokeWidth=1;perimeterSpacing=0;" parent="1" vertex="1">
                    <mxGeometry x="650" y="7840" width="130" height="10" as="geometry"/>
                </mxCell>
                <mxCell id="18" value="&lt;font style=&quot;font-size: 23px&quot;&gt;Prix&lt;/font&gt;" style="text;html=1;align=center;verticalAlign=middle;whiteSpace=wrap;rounded=0;strokeWidth=1;perimeterSpacing=0;" parent="1" vertex="1">
                    <mxGeometry x="650" y="7880" width="130" height="10" as="geometry"/>
                </mxCell>
                <mxCell id="19" value="&lt;font style=&quot;font-size: 23px&quot;&gt;N-Produit&lt;/font&gt;" style="text;html=1;align=center;verticalAlign=middle;whiteSpace=wrap;rounded=0;strokeWidth=1;perimeterSpacing=0;" parent="1" vertex="1">
                    <mxGeometry x="650" y="7920" width="130" height="10" as="geometry"/>
                </mxCell>
                <mxCell id="20" value="&lt;font style=&quot;font-size: 23px&quot;&gt;P-details&lt;/font&gt;" style="text;html=1;align=center;verticalAlign=middle;whiteSpace=wrap;rounded=0;strokeWidth=1;perimeterSpacing=0;" parent="1" vertex="1">
                    <mxGeometry x="650" y="7960" width="130" height="10" as="geometry"/>
                </mxCell>
                <mxCell id="21" value="&lt;font style=&quot;font-size: 23px&quot;&gt;P-title&lt;/font&gt;" style="text;html=1;align=center;verticalAlign=middle;whiteSpace=wrap;rounded=0;strokeWidth=1;perimeterSpacing=0;" parent="1" vertex="1">
                    <mxGeometry x="645" y="7990" width="130" height="10" as="geometry"/>
                </mxCell>
                <mxCell id="22" style="edgeStyle=orthogonalEdgeStyle;rounded=0;orthogonalLoop=1;jettySize=auto;html=1;exitX=0.75;exitY=0;exitDx=0;exitDy=0;entryX=0.654;entryY=0;entryDx=0;entryDy=0;entryPerimeter=0;" parent="1" source="18" target="18" edge="1">
                    <mxGeometry relative="1" as="geometry"/>
                </mxCell>
                <mxCell id="23" value="&lt;font style=&quot;font-size: 23px&quot;&gt;image&lt;/font&gt;" style="text;html=1;align=center;verticalAlign=middle;whiteSpace=wrap;rounded=0;strokeWidth=1;perimeterSpacing=0;" parent="1" vertex="1">
                    <mxGeometry x="645" y="8030" width="130" height="10" as="geometry"/>
                </mxCell>
                <mxCell id="25" value="&lt;font style=&quot;font-size: 23px&quot;&gt;id_user&lt;/font&gt;" style="text;html=1;align=center;verticalAlign=middle;whiteSpace=wrap;rounded=0;strokeWidth=1;perimeterSpacing=0;" parent="1" vertex="1">
                    <mxGeometry x="285" y="7705" width="130" height="10" as="geometry"/>
                </mxCell>
                <mxCell id="26" value="&lt;font style=&quot;font-size: 23px&quot;&gt;F-NAME&lt;/font&gt;" style="text;html=1;align=center;verticalAlign=middle;whiteSpace=wrap;rounded=0;strokeWidth=1;perimeterSpacing=0;" parent="1" vertex="1">
                    <mxGeometry x="285" y="7745" width="130" height="10" as="geometry"/>
                </mxCell>
                <mxCell id="27" value="&lt;font style=&quot;font-size: 23px&quot;&gt;L-NAME&lt;/font&gt;" style="text;html=1;align=center;verticalAlign=middle;whiteSpace=wrap;rounded=0;strokeWidth=1;perimeterSpacing=0;" parent="1" vertex="1">
                    <mxGeometry x="285" y="7785" width="130" height="10" as="geometry"/>
                </mxCell>
                <mxCell id="28" value="&lt;font style=&quot;font-size: 23px&quot;&gt;EMAIL&lt;/font&gt;" style="text;html=1;align=center;verticalAlign=middle;whiteSpace=wrap;rounded=0;strokeWidth=1;perimeterSpacing=0;" parent="1" vertex="1">
                    <mxGeometry x="280" y="7815" width="130" height="10" as="geometry"/>
                </mxCell>
                <mxCell id="29" value="&lt;font style=&quot;font-size: 23px&quot;&gt;NUM&lt;/font&gt;" style="text;html=1;align=center;verticalAlign=middle;whiteSpace=wrap;rounded=0;strokeWidth=1;perimeterSpacing=0;" parent="1" vertex="1">
                    <mxGeometry x="280" y="7855" width="130" height="10" as="geometry"/>
                </mxCell>
                <mxCell id="30" value="&lt;font style=&quot;font-size: 23px&quot;&gt;Mdp&lt;/font&gt;" style="text;html=1;align=center;verticalAlign=middle;whiteSpace=wrap;rounded=0;strokeWidth=1;perimeterSpacing=0;" parent="1" vertex="1">
                    <mxGeometry x="280" y="7885" width="130" height="10" as="geometry"/>
                </mxCell>
                <mxCell id="31" value="" style="rounded=1;whiteSpace=wrap;html=1;" parent="1" vertex="1">
                    <mxGeometry x="190" y="8040" width="200" height="80" as="geometry"/>
                </mxCell>
                <mxCell id="32" value="&lt;p style=&quot;line-height: 150%&quot;&gt;&lt;font style=&quot;font-size: 30px&quot;&gt;Roles&lt;/font&gt;&lt;/p&gt;" style="text;html=1;strokeColor=none;fillColor=none;align=center;verticalAlign=middle;whiteSpace=wrap;rounded=0;opacity=0;strokeWidth=12;" parent="1" vertex="1">
                    <mxGeometry x="230" y="8050" width="140" height="60" as="geometry"/>
                </mxCell>
                <mxCell id="33" value="" style="rounded=1;whiteSpace=wrap;html=1;fillColor=#949494;" parent="1" vertex="1">
                    <mxGeometry x="190" y="8120" width="200" height="230" as="geometry"/>
                </mxCell>
                <mxCell id="34" value="&lt;span style=&quot;font-size: 23px&quot;&gt;role_id&lt;/span&gt;" style="text;html=1;align=center;verticalAlign=middle;whiteSpace=wrap;rounded=0;strokeWidth=1;perimeterSpacing=0;" parent="1" vertex="1">
                    <mxGeometry x="225" y="8150" width="130" height="10" as="geometry"/>
                </mxCell>
                <mxCell id="35" value="&lt;font style=&quot;font-size: 23px&quot;&gt;role&lt;/font&gt;" style="text;html=1;align=center;verticalAlign=middle;whiteSpace=wrap;rounded=0;strokeWidth=1;perimeterSpacing=0;" parent="1" vertex="1">
                    <mxGeometry x="225" y="8190" width="130" height="10" as="geometry"/>
                </mxCell>
                <mxCell id="37" value="&lt;font style=&quot;font-size: 32px&quot;&gt;MLD&lt;/font&gt;" style="text;html=1;align=center;verticalAlign=middle;resizable=0;points=[];autosize=1;strokeColor=none;" parent="1" vertex="1">
                    <mxGeometry x="730" y="7530" width="80" height="30" as="geometry"/>
                </mxCell>
                <mxCell id="45" value="" style="rounded=1;whiteSpace=wrap;html=1;" parent="1" vertex="1">
                    <mxGeometry x="755" y="6530" width="200" height="80" as="geometry"/>
                </mxCell>
                <mxCell id="46" value="" style="rounded=1;whiteSpace=wrap;html=1;" parent="1" vertex="1">
                    <mxGeometry x="755" y="7110" width="200" height="80" as="geometry"/>
                </mxCell>
                <mxCell id="47" value="&lt;p style=&quot;line-height: 150%&quot;&gt;&lt;font style=&quot;font-size: 30px&quot;&gt;Produit&lt;/font&gt;&lt;/p&gt;" style="text;html=1;strokeColor=none;fillColor=none;align=center;verticalAlign=middle;whiteSpace=wrap;rounded=0;opacity=0;strokeWidth=12;" parent="1" vertex="1">
                    <mxGeometry x="795" y="6540" width="140" height="60" as="geometry"/>
                </mxCell>
                <mxCell id="48" value="&lt;p style=&quot;line-height: 150%&quot;&gt;&lt;font style=&quot;font-size: 30px&quot;&gt;User&lt;/font&gt;&lt;/p&gt;" style="text;html=1;strokeColor=none;fillColor=none;align=center;verticalAlign=middle;whiteSpace=wrap;rounded=0;opacity=0;strokeWidth=12;" parent="1" vertex="1">
                    <mxGeometry x="795" y="7120" width="140" height="60" as="geometry"/>
                </mxCell>
                <mxCell id="49" value="" style="rounded=1;whiteSpace=wrap;html=1;fillColor=#949494;" parent="1" vertex="1">
                    <mxGeometry x="755" y="7190" width="200" height="230" as="geometry"/>
                </mxCell>
                <mxCell id="50" value="" style="rounded=1;whiteSpace=wrap;html=1;fillColor=#949494;" parent="1" vertex="1">
                    <mxGeometry x="755" y="6610" width="200" height="280" as="geometry"/>
                </mxCell>
                <mxCell id="51" value="&lt;font style=&quot;font-size: 23px&quot;&gt;id_produit&lt;/font&gt;" style="text;html=1;align=center;verticalAlign=middle;whiteSpace=wrap;rounded=0;strokeWidth=1;perimeterSpacing=0;" parent="1" vertex="1">
                    <mxGeometry x="790" y="6640" width="130" height="10" as="geometry"/>
                </mxCell>
                <mxCell id="52" value="&lt;font style=&quot;font-size: 23px&quot;&gt;Prix&lt;/font&gt;" style="text;html=1;align=center;verticalAlign=middle;whiteSpace=wrap;rounded=0;strokeWidth=1;perimeterSpacing=0;" parent="1" vertex="1">
                    <mxGeometry x="790" y="6680" width="130" height="10" as="geometry"/>
                </mxCell>
                <mxCell id="53" value="&lt;font style=&quot;font-size: 23px&quot;&gt;N-Produit&lt;/font&gt;" style="text;html=1;align=center;verticalAlign=middle;whiteSpace=wrap;rounded=0;strokeWidth=1;perimeterSpacing=0;" parent="1" vertex="1">
                    <mxGeometry x="790" y="6720" width="130" height="10" as="geometry"/>
                </mxCell>
                <mxCell id="54" value="&lt;font style=&quot;font-size: 23px&quot;&gt;P-details&lt;/font&gt;" style="text;html=1;align=center;verticalAlign=middle;whiteSpace=wrap;rounded=0;strokeWidth=1;perimeterSpacing=0;" parent="1" vertex="1">
                    <mxGeometry x="790" y="6760" width="130" height="10" as="geometry"/>
                </mxCell>
                <mxCell id="55" value="&lt;font style=&quot;font-size: 23px&quot;&gt;P-title&lt;/font&gt;" style="text;html=1;align=center;verticalAlign=middle;whiteSpace=wrap;rounded=0;strokeWidth=1;perimeterSpacing=0;" parent="1" vertex="1">
                    <mxGeometry x="785" y="6790" width="130" height="10" as="geometry"/>
                </mxCell>
                <mxCell id="56" style="edgeStyle=orthogonalEdgeStyle;rounded=0;orthogonalLoop=1;jettySize=auto;html=1;exitX=0.75;exitY=0;exitDx=0;exitDy=0;entryX=0.654;entryY=0;entryDx=0;entryDy=0;entryPerimeter=0;" parent="1" source="52" target="52" edge="1">
                    <mxGeometry relative="1" as="geometry"/>
                </mxCell>
                <mxCell id="57" value="&lt;font style=&quot;font-size: 23px&quot;&gt;image&lt;/font&gt;" style="text;html=1;align=center;verticalAlign=middle;whiteSpace=wrap;rounded=0;strokeWidth=1;perimeterSpacing=0;" parent="1" vertex="1">
                    <mxGeometry x="785" y="6830" width="130" height="10" as="geometry"/>
                </mxCell>
                <mxCell id="58" value="&lt;font style=&quot;font-size: 23px&quot;&gt;id_user&lt;/font&gt;" style="text;html=1;align=center;verticalAlign=middle;whiteSpace=wrap;rounded=0;strokeWidth=1;perimeterSpacing=0;" parent="1" vertex="1">
                    <mxGeometry x="790" y="7220" width="130" height="10" as="geometry"/>
                </mxCell>
                <mxCell id="tk6b066pp8aDUaOKNzEZ-146" value="" style="edgeStyle=orthogonalEdgeStyle;rounded=0;orthogonalLoop=1;jettySize=auto;html=1;" parent="1" source="59" target="48" edge="1">
                    <mxGeometry relative="1" as="geometry"/>
                </mxCell>
                <mxCell id="59" value="&lt;font style=&quot;font-size: 23px&quot;&gt;NAME-USER&lt;/font&gt;" style="text;html=1;align=center;verticalAlign=middle;whiteSpace=wrap;rounded=0;strokeWidth=1;perimeterSpacing=0;" parent="1" vertex="1">
                    <mxGeometry x="790" y="7260" width="150" height="10" as="geometry"/>
                </mxCell>
                <mxCell id="60" value="&lt;font style=&quot;font-size: 23px&quot;&gt;ADRESS&lt;/font&gt;" style="text;html=1;align=center;verticalAlign=middle;whiteSpace=wrap;rounded=0;strokeWidth=1;perimeterSpacing=0;" parent="1" vertex="1">
                    <mxGeometry x="790" y="7296" width="130" height="10" as="geometry"/>
                </mxCell>
                <mxCell id="61" value="&lt;font style=&quot;font-size: 23px&quot;&gt;EMAIL&lt;/font&gt;" style="text;html=1;align=center;verticalAlign=middle;whiteSpace=wrap;rounded=0;strokeWidth=1;perimeterSpacing=0;" parent="1" vertex="1">
                    <mxGeometry x="785" y="7330" width="130" height="10" as="geometry"/>
                </mxCell>
                <mxCell id="62" value="&lt;font style=&quot;font-size: 23px&quot;&gt;NUM&lt;/font&gt;" style="text;html=1;align=center;verticalAlign=middle;whiteSpace=wrap;rounded=0;strokeWidth=1;perimeterSpacing=0;" parent="1" vertex="1">
                    <mxGeometry x="785" y="7370" width="130" height="10" as="geometry"/>
                </mxCell>
                <mxCell id="63" value="&lt;font style=&quot;font-size: 23px&quot;&gt;Password&lt;/font&gt;" style="text;html=1;align=center;verticalAlign=middle;whiteSpace=wrap;rounded=0;strokeWidth=1;perimeterSpacing=0;" parent="1" vertex="1">
                    <mxGeometry x="785" y="7400" width="130" height="10" as="geometry"/>
                </mxCell>
                <mxCell id="64" value="" style="endArrow=none;html=1;exitX=0.5;exitY=0;exitDx=0;exitDy=0;entryX=0.5;entryY=1;entryDx=0;entryDy=0;" parent="1" source="46" target="50" edge="1">
                    <mxGeometry width="50" height="50" relative="1" as="geometry">
                        <mxPoint x="705" y="6890" as="sourcePoint"/>
                        <mxPoint x="755" y="6840" as="targetPoint"/>
                    </mxGeometry>
                </mxCell>
                <mxCell id="65" value="" style="rounded=1;whiteSpace=wrap;html=1;" parent="1" vertex="1">
                    <mxGeometry x="325" y="6567.5" width="200" height="80" as="geometry"/>
                </mxCell>
                <mxCell id="66" value="&lt;p style=&quot;line-height: 150%&quot;&gt;&lt;font style=&quot;font-size: 30px&quot;&gt;Roles&lt;/font&gt;&lt;/p&gt;" style="text;html=1;strokeColor=none;fillColor=none;align=center;verticalAlign=middle;whiteSpace=wrap;rounded=0;opacity=0;strokeWidth=12;" parent="1" vertex="1">
                    <mxGeometry x="365" y="6577.5" width="140" height="60" as="geometry"/>
                </mxCell>
                <mxCell id="67" value="" style="rounded=1;whiteSpace=wrap;html=1;fillColor=#949494;" parent="1" vertex="1">
                    <mxGeometry x="325" y="6647.5" width="200" height="230" as="geometry"/>
                </mxCell>
                <mxCell id="68" value="&lt;span style=&quot;font-size: 23px&quot;&gt;role_id&lt;/span&gt;" style="text;html=1;align=center;verticalAlign=middle;whiteSpace=wrap;rounded=0;strokeWidth=1;perimeterSpacing=0;" parent="1" vertex="1">
                    <mxGeometry x="360" y="6677.5" width="130" height="10" as="geometry"/>
                </mxCell>
                <mxCell id="69" value="&lt;font style=&quot;font-size: 23px&quot;&gt;role&lt;/font&gt;" style="text;html=1;align=center;verticalAlign=middle;whiteSpace=wrap;rounded=0;strokeWidth=1;perimeterSpacing=0;" parent="1" vertex="1">
                    <mxGeometry x="360" y="6717.5" width="130" height="10" as="geometry"/>
                </mxCell>
                <mxCell id="71" value="&lt;font style=&quot;font-size: 32px&quot;&gt;&amp;nbsp;CONCEPTUEL DONNEES MCD&lt;/font&gt;" style="text;html=1;align=center;verticalAlign=middle;resizable=0;points=[];autosize=1;strokeColor=none;" parent="1" vertex="1">
                    <mxGeometry x="574" y="6350" width="490" height="30" as="geometry"/>
                </mxCell>
                <mxCell id="72" value="" style="endArrow=classic;html=1;" parent="1" edge="1">
                    <mxGeometry width="50" height="50" relative="1" as="geometry">
                        <mxPoint x="220" y="6610.5" as="sourcePoint"/>
                        <mxPoint x="300" y="6610.5" as="targetPoint"/>
                    </mxGeometry>
                </mxCell>
                <mxCell id="73" value="&lt;font style=&quot;font-size: 32px&quot;&gt;&amp;nbsp;ENTITE&lt;/font&gt;" style="text;html=1;align=center;verticalAlign=middle;resizable=0;points=[];autosize=1;strokeColor=none;" parent="1" vertex="1">
                    <mxGeometry x="40" y="6597.5" width="140" height="30" as="geometry"/>
                </mxCell>
                <mxCell id="76" value="" style="endArrow=classic;html=1;" parent="1" edge="1">
                    <mxGeometry width="50" height="50" relative="1" as="geometry">
                        <mxPoint x="220" y="6717.5" as="sourcePoint"/>
                        <mxPoint x="300" y="6717.5" as="targetPoint"/>
                    </mxGeometry>
                </mxCell>
                <mxCell id="77" value="&lt;font style=&quot;font-size: 32px&quot;&gt;Propriete&lt;/font&gt;" style="text;html=1;align=center;verticalAlign=middle;resizable=0;points=[];autosize=1;strokeColor=none;" parent="1" vertex="1">
                    <mxGeometry x="30" y="6697.5" width="150" height="30" as="geometry"/>
                </mxCell>
                <mxCell id="78" value="" style="ellipse;whiteSpace=wrap;html=1;" parent="1" vertex="1">
                    <mxGeometry x="800" y="6950" width="120" height="80" as="geometry"/>
                </mxCell>
                <mxCell id="79" value="&lt;font style=&quot;font-size: 21px&quot;&gt;view&lt;br&gt;Crud&lt;br&gt;&lt;/font&gt;" style="text;html=1;strokeColor=none;fillColor=none;align=center;verticalAlign=middle;whiteSpace=wrap;rounded=0;" parent="1" vertex="1">
                    <mxGeometry x="841" y="6980" width="40" height="20" as="geometry"/>
                </mxCell>
                <mxCell id="80" value="" style="rounded=1;whiteSpace=wrap;html=1;" parent="1" vertex="1">
                    <mxGeometry x="1360" y="7070" width="200" height="80" as="geometry"/>
                </mxCell>
                <mxCell id="81" value="&lt;p style=&quot;line-height: 150%&quot;&gt;&lt;span style=&quot;font-size: 30px&quot;&gt;Contact&lt;/span&gt;&lt;/p&gt;" style="text;html=1;strokeColor=none;fillColor=none;align=center;verticalAlign=middle;whiteSpace=wrap;rounded=0;opacity=0;strokeWidth=12;" parent="1" vertex="1">
                    <mxGeometry x="1400" y="7080" width="140" height="60" as="geometry"/>
                </mxCell>
                <mxCell id="82" value="" style="rounded=1;whiteSpace=wrap;html=1;fillColor=#949494;" parent="1" vertex="1">
                    <mxGeometry x="1360" y="7150" width="200" height="280" as="geometry"/>
                </mxCell>
                <mxCell id="83" value="&lt;font style=&quot;font-size: 23px&quot;&gt;id_contact&lt;/font&gt;" style="text;html=1;align=center;verticalAlign=middle;whiteSpace=wrap;rounded=0;strokeWidth=1;perimeterSpacing=0;" parent="1" vertex="1">
                    <mxGeometry x="1395" y="7180" width="130" height="10" as="geometry"/>
                </mxCell>
                <mxCell id="84" style="edgeStyle=orthogonalEdgeStyle;rounded=0;orthogonalLoop=1;jettySize=auto;html=1;exitX=0.75;exitY=0;exitDx=0;exitDy=0;entryX=0.654;entryY=0;entryDx=0;entryDy=0;entryPerimeter=0;" parent="1" edge="1">
                    <mxGeometry relative="1" as="geometry">
                        <mxPoint x="1492.499999999999" y="7220" as="sourcePoint"/>
                        <mxPoint x="1480.0200000000004" y="7220" as="targetPoint"/>
                    </mxGeometry>
                </mxCell>
                <mxCell id="85" value="&lt;font style=&quot;font-size: 23px&quot;&gt;sujet&lt;/font&gt;" style="text;html=1;align=center;verticalAlign=middle;whiteSpace=wrap;rounded=0;strokeWidth=1;perimeterSpacing=0;" parent="1" vertex="1">
                    <mxGeometry x="1395" y="7225" width="130" height="10" as="geometry"/>
                </mxCell>
                <mxCell id="86" value="&lt;font style=&quot;font-size: 23px&quot;&gt;message&lt;/font&gt;" style="text;html=1;align=center;verticalAlign=middle;whiteSpace=wrap;rounded=0;strokeWidth=1;perimeterSpacing=0;" parent="1" vertex="1">
                    <mxGeometry x="1400" y="7265" width="130" height="10" as="geometry"/>
                </mxCell>
                <mxCell id="87" value="" style="rounded=1;whiteSpace=wrap;html=1;" parent="1" vertex="1">
                    <mxGeometry x="1037" y="8205" width="200" height="80" as="geometry"/>
                </mxCell>
                <mxCell id="88" value="&lt;p style=&quot;line-height: 150%&quot;&gt;&lt;span style=&quot;font-size: 30px&quot;&gt;Contact&lt;/span&gt;&lt;/p&gt;" style="text;html=1;strokeColor=none;fillColor=none;align=center;verticalAlign=middle;whiteSpace=wrap;rounded=0;opacity=0;strokeWidth=12;" parent="1" vertex="1">
                    <mxGeometry x="1077" y="8215" width="140" height="60" as="geometry"/>
                </mxCell>
                <mxCell id="89" value="" style="rounded=1;whiteSpace=wrap;html=1;fillColor=#949494;" parent="1" vertex="1">
                    <mxGeometry x="1057" y="8295" width="200" height="280" as="geometry"/>
                </mxCell>
                <mxCell id="90" value="&lt;font style=&quot;font-size: 23px&quot;&gt;id_contact&lt;/font&gt;" style="text;html=1;align=center;verticalAlign=middle;whiteSpace=wrap;rounded=0;strokeWidth=1;perimeterSpacing=0;" parent="1" vertex="1">
                    <mxGeometry x="1072" y="8315" width="130" height="10" as="geometry"/>
                </mxCell>
                <mxCell id="91" style="edgeStyle=orthogonalEdgeStyle;rounded=0;orthogonalLoop=1;jettySize=auto;html=1;exitX=0.75;exitY=0;exitDx=0;exitDy=0;entryX=0.654;entryY=0;entryDx=0;entryDy=0;entryPerimeter=0;" parent="1" edge="1">
                    <mxGeometry relative="1" as="geometry">
                        <mxPoint x="1169.499999999999" y="8355" as="sourcePoint"/>
                        <mxPoint x="1157.0200000000004" y="8355" as="targetPoint"/>
                    </mxGeometry>
                </mxCell>
                <mxCell id="92" value="&lt;font style=&quot;font-size: 23px&quot;&gt;sujet&lt;/font&gt;" style="text;html=1;align=center;verticalAlign=middle;whiteSpace=wrap;rounded=0;strokeWidth=1;perimeterSpacing=0;" parent="1" vertex="1">
                    <mxGeometry x="1072" y="8360" width="130" height="10" as="geometry"/>
                </mxCell>
                <mxCell id="93" value="&lt;font style=&quot;font-size: 23px&quot;&gt;message&lt;/font&gt;" style="text;html=1;align=center;verticalAlign=middle;whiteSpace=wrap;rounded=0;strokeWidth=1;perimeterSpacing=0;" parent="1" vertex="1">
                    <mxGeometry x="1077" y="8400" width="130" height="10" as="geometry"/>
                </mxCell>
                <mxCell id="94" value="&lt;font style=&quot;font-size: 23px&quot;&gt;1-1&lt;/font&gt;" style="text;html=1;strokeColor=none;fillColor=none;align=center;verticalAlign=middle;whiteSpace=wrap;rounded=0;glass=0;opacity=0;" parent="1" vertex="1">
                    <mxGeometry x="840" y="6900" width="80" height="40" as="geometry"/>
                </mxCell>
                <mxCell id="95" value="&lt;font style=&quot;font-size: 23px&quot;&gt;1-N&lt;/font&gt;" style="text;html=1;strokeColor=none;fillColor=none;align=center;verticalAlign=middle;whiteSpace=wrap;rounded=0;glass=0;opacity=0;" parent="1" vertex="1">
                    <mxGeometry x="775" y="7060" width="80" height="40" as="geometry"/>
                </mxCell>
                <mxCell id="96" value="" style="ellipse;whiteSpace=wrap;html=1;rotation=0;" parent="1" vertex="1">
                    <mxGeometry x="1110" y="7290" width="120" height="80" as="geometry"/>
                </mxCell>
                <mxCell id="97" value="" style="endArrow=none;html=1;exitX=1;exitY=0.25;exitDx=0;exitDy=0;entryX=0;entryY=0.5;entryDx=0;entryDy=0;" parent="1" source="49" target="96" edge="1">
                    <mxGeometry width="50" height="50" relative="1" as="geometry">
                        <mxPoint x="1040" y="7240" as="sourcePoint"/>
                        <mxPoint x="1080" y="7090" as="targetPoint"/>
                    </mxGeometry>
                </mxCell>
                <mxCell id="98" value="" style="endArrow=none;html=1;entryX=0;entryY=0.5;entryDx=0;entryDy=0;exitX=1;exitY=0.5;exitDx=0;exitDy=0;" parent="1" source="96" target="82" edge="1">
                    <mxGeometry width="50" height="50" relative="1" as="geometry">
                        <mxPoint x="1320" y="7060" as="sourcePoint"/>
                        <mxPoint x="1340" y="6900" as="targetPoint"/>
                    </mxGeometry>
                </mxCell>
                <mxCell id="100" value="&lt;font style=&quot;font-size: 23px&quot;&gt;1-N&lt;/font&gt;" style="text;html=1;strokeColor=none;fillColor=none;align=center;verticalAlign=middle;whiteSpace=wrap;rounded=0;glass=0;opacity=0;" parent="1" vertex="1">
                    <mxGeometry x="977" y="7230" width="80" height="40" as="geometry"/>
                </mxCell>
                <mxCell id="101" value="&lt;font style=&quot;font-size: 23px&quot;&gt;1-1&lt;/font&gt;" style="text;html=1;strokeColor=none;fillColor=none;align=center;verticalAlign=middle;whiteSpace=wrap;rounded=0;glass=0;opacity=0;" parent="1" vertex="1">
                    <mxGeometry x="1390" y="7256" width="80" height="40" as="geometry"/>
                </mxCell>
                <mxCell id="103" value="" style="rounded=1;whiteSpace=wrap;html=1;fillColor=#949494;" parent="1" vertex="1">
                    <mxGeometry x="1270" y="6760" width="200" height="230" as="geometry"/>
                </mxCell>
                <mxCell id="104" value="" style="rounded=1;whiteSpace=wrap;html=1;" parent="1" vertex="1">
                    <mxGeometry x="1270" y="6680" width="200" height="80" as="geometry"/>
                </mxCell>
                <mxCell id="105" value="&lt;p style=&quot;line-height: 150%&quot;&gt;&lt;span style=&quot;font-size: 30px&quot;&gt;Checkout&lt;/span&gt;&lt;/p&gt;" style="text;html=1;strokeColor=none;fillColor=none;align=center;verticalAlign=middle;whiteSpace=wrap;rounded=0;opacity=0;strokeWidth=12;" parent="1" vertex="1">
                    <mxGeometry x="1305" y="6700" width="140" height="60" as="geometry"/>
                </mxCell>
                <mxCell id="106" value="&lt;font style=&quot;font-size: 23px&quot;&gt;id_checkout&lt;/font&gt;" style="text;html=1;align=center;verticalAlign=middle;whiteSpace=wrap;rounded=0;strokeWidth=1;perimeterSpacing=0;" parent="1" vertex="1">
                    <mxGeometry x="1300" y="6800" width="130" height="10" as="geometry"/>
                </mxCell>
                <mxCell id="107" value="" style="rounded=1;whiteSpace=wrap;html=1;fillColor=#949494;" parent="1" vertex="1">
                    <mxGeometry x="1049" y="7745" width="200" height="325" as="geometry"/>
                </mxCell>
                <mxCell id="108" value="" style="rounded=1;whiteSpace=wrap;html=1;" parent="1" vertex="1">
                    <mxGeometry x="1049" y="7665" width="200" height="80" as="geometry"/>
                </mxCell>
                <mxCell id="109" value="&lt;p style=&quot;line-height: 150%&quot;&gt;&lt;span style=&quot;font-size: 30px&quot;&gt;Checkout&lt;/span&gt;&lt;/p&gt;" style="text;html=1;strokeColor=none;fillColor=none;align=center;verticalAlign=middle;whiteSpace=wrap;rounded=0;opacity=0;strokeWidth=12;" parent="1" vertex="1">
                    <mxGeometry x="1074" y="7670" width="140" height="60" as="geometry"/>
                </mxCell>
                <mxCell id="110" value="&lt;font style=&quot;font-size: 23px&quot;&gt;id_checkout&lt;/font&gt;" style="text;html=1;align=center;verticalAlign=middle;whiteSpace=wrap;rounded=0;strokeWidth=1;perimeterSpacing=0;" parent="1" vertex="1">
                    <mxGeometry x="1084" y="7775" width="130" height="10" as="geometry"/>
                </mxCell>
                <mxCell id="114" value="" style="endArrow=none;html=1;exitX=1;exitY=0.25;exitDx=0;exitDy=0;" parent="1" edge="1">
                    <mxGeometry width="50" height="50" relative="1" as="geometry">
                        <mxPoint x="955" y="7217.5" as="sourcePoint"/>
                        <mxPoint x="1060" y="7040" as="targetPoint"/>
                    </mxGeometry>
                </mxCell>
                <mxCell id="115" value="" style="endArrow=none;html=1;exitX=1;exitY=0.5;exitDx=0;exitDy=0;" parent="1" source="116" edge="1">
                    <mxGeometry width="50" height="50" relative="1" as="geometry">
                        <mxPoint x="1165" y="6987.5" as="sourcePoint"/>
                        <mxPoint x="1270" y="6810" as="targetPoint"/>
                    </mxGeometry>
                </mxCell>
                <mxCell id="116" value="" style="ellipse;whiteSpace=wrap;html=1;rotation=0;" parent="1" vertex="1">
                    <mxGeometry x="1049" y="6980" width="120" height="80" as="geometry"/>
                </mxCell>
                <mxCell id="117" value="&lt;span style=&quot;font-size: 21px&quot;&gt;Order&lt;/span&gt;" style="text;html=1;strokeColor=none;fillColor=none;align=center;verticalAlign=middle;whiteSpace=wrap;rounded=0;" parent="1" vertex="1">
                    <mxGeometry x="1089" y="7010" width="40" height="20" as="geometry"/>
                </mxCell>
                <mxCell id="118" value="&lt;font style=&quot;font-size: 23px&quot;&gt;1-N&lt;/font&gt;" style="text;html=1;strokeColor=none;fillColor=none;align=center;verticalAlign=middle;whiteSpace=wrap;rounded=0;glass=0;opacity=0;" parent="1" vertex="1">
                    <mxGeometry x="992" y="7145" width="80" height="40" as="geometry"/>
                </mxCell>
                <mxCell id="119" value="&lt;font style=&quot;font-size: 23px&quot;&gt;1-1&lt;/font&gt;" style="text;html=1;strokeColor=none;fillColor=none;align=center;verticalAlign=middle;whiteSpace=wrap;rounded=0;glass=0;opacity=0;" parent="1" vertex="1">
                    <mxGeometry x="1169" y="6810" width="80" height="40" as="geometry"/>
                </mxCell>
                <mxCell id="120" value="" style="endArrow=none;html=1;" parent="1" edge="1">
                    <mxGeometry width="50" height="50" relative="1" as="geometry">
                        <mxPoint x="431" y="7120" as="sourcePoint"/>
                        <mxPoint x="431" y="6877.5" as="targetPoint"/>
                    </mxGeometry>
                </mxCell>
                <mxCell id="121" value="" style="ellipse;whiteSpace=wrap;html=1;rotation=0;" parent="1" vertex="1">
                    <mxGeometry x="370" y="7120" width="120" height="80" as="geometry"/>
                </mxCell>
                <mxCell id="122" value="" style="endArrow=none;html=1;entryX=0;entryY=0.5;entryDx=0;entryDy=0;exitX=0.5;exitY=1;exitDx=0;exitDy=0;" parent="1" source="121" edge="1">
                    <mxGeometry width="50" height="50" relative="1" as="geometry">
                        <mxPoint x="540.0000000000182" y="7276" as="sourcePoint"/>
                        <mxPoint x="750" y="7306" as="targetPoint"/>
                    </mxGeometry>
                </mxCell>
                <mxCell id="123" value="&lt;span style=&quot;font-size: 21px&quot;&gt;role_user&lt;/span&gt;" style="text;html=1;strokeColor=none;fillColor=none;align=center;verticalAlign=middle;whiteSpace=wrap;rounded=0;" parent="1" vertex="1">
                    <mxGeometry x="410" y="7155" width="40" height="20" as="geometry"/>
                </mxCell>
                <mxCell id="124" value="&lt;font style=&quot;font-size: 23px&quot;&gt;1-1&lt;/font&gt;" style="text;html=1;strokeColor=none;fillColor=none;align=center;verticalAlign=middle;whiteSpace=wrap;rounded=0;glass=0;opacity=0;" parent="1" vertex="1">
                    <mxGeometry x="335" y="6910" width="80" height="40" as="geometry"/>
                </mxCell>
                <mxCell id="125" value="&lt;font style=&quot;font-size: 23px&quot;&gt;1-1&lt;/font&gt;" style="text;html=1;strokeColor=none;fillColor=none;align=center;verticalAlign=middle;whiteSpace=wrap;rounded=0;glass=0;opacity=0;" parent="1" vertex="1">
                    <mxGeometry x="655" y="7315" width="80" height="40" as="geometry"/>
                </mxCell>
                <mxCell id="126" value="" style="endArrow=none;html=1;exitX=1;exitY=0.5;exitDx=0;exitDy=0;" parent="1" edge="1">
                    <mxGeometry width="50" height="50" relative="1" as="geometry">
                        <mxPoint x="950" y="6760" as="sourcePoint"/>
                        <mxPoint x="1080" y="6750" as="targetPoint"/>
                    </mxGeometry>
                </mxCell>
                <mxCell id="127" value="" style="endArrow=none;html=1;" parent="1" edge="1">
                    <mxGeometry width="50" height="50" relative="1" as="geometry">
                        <mxPoint x="1180" y="6760" as="sourcePoint"/>
                        <mxPoint x="1274.0000000000005" y="6780" as="targetPoint"/>
                    </mxGeometry>
                </mxCell>
                <mxCell id="128" value="" style="ellipse;whiteSpace=wrap;html=1;" parent="1" vertex="1">
                    <mxGeometry x="1064" y="6730" width="120" height="60" as="geometry"/>
                </mxCell>
                <mxCell id="129" value="&lt;font style=&quot;font-size: 23px&quot;&gt;Quantity&lt;/font&gt;" style="text;html=1;align=center;verticalAlign=middle;whiteSpace=wrap;rounded=0;strokeWidth=1;perimeterSpacing=0;" parent="1" vertex="1">
                    <mxGeometry x="1084" y="7830" width="130" height="35" as="geometry"/>
                </mxCell>
                <mxCell id="tk6b066pp8aDUaOKNzEZ-132" value="" style="endArrow=none;html=1;exitX=0.014;exitY=0.165;exitDx=0;exitDy=0;exitPerimeter=0;entryX=1;entryY=0.5;entryDx=0;entryDy=0;" parent="1" source="10" target="9" edge="1">
                    <mxGeometry width="50" height="50" relative="1" as="geometry">
                        <mxPoint x="730" y="8030" as="sourcePoint"/>
                        <mxPoint x="780" y="7980" as="targetPoint"/>
                    </mxGeometry>
                </mxCell>
                <mxCell id="tk6b066pp8aDUaOKNzEZ-133" value="" style="endArrow=none;html=1;exitX=0.688;exitY=2.264;exitDx=0;exitDy=0;entryX=-0.001;entryY=0.473;entryDx=0;entryDy=0;entryPerimeter=0;exitPerimeter=0;" parent="1" source="30" target="89" edge="1">
                    <mxGeometry width="50" height="50" relative="1" as="geometry">
                        <mxPoint x="730" y="8030" as="sourcePoint"/>
                        <mxPoint x="780" y="7980" as="targetPoint"/>
                        <Array as="points">
                            <mxPoint x="590" y="8290"/>
                        </Array>
                    </mxGeometry>
                </mxCell>
                <mxCell id="tk6b066pp8aDUaOKNzEZ-134" value="" style="endArrow=none;html=1;exitX=0.5;exitY=0;exitDx=0;exitDy=0;" parent="1" source="33" edge="1">
                    <mxGeometry width="50" height="50" relative="1" as="geometry">
                        <mxPoint x="730" y="8030" as="sourcePoint"/>
                        <mxPoint x="330" y="7910" as="targetPoint"/>
                    </mxGeometry>
                </mxCell>
                <mxCell id="tk6b066pp8aDUaOKNzEZ-136" value="" style="endArrow=none;html=1;entryX=0;entryY=0.5;entryDx=0;entryDy=0;" parent="1" source="10" target="107" edge="1">
                    <mxGeometry width="50" height="50" relative="1" as="geometry">
                        <mxPoint x="540" y="8220" as="sourcePoint"/>
                        <mxPoint x="590" y="8170" as="targetPoint"/>
                    </mxGeometry>
                </mxCell>
                <mxCell id="tk6b066pp8aDUaOKNzEZ-141" value="&lt;font style=&quot;font-size: 23px&quot;&gt;id_user&lt;/font&gt;" style="text;html=1;align=center;verticalAlign=middle;whiteSpace=wrap;rounded=0;strokeWidth=1;perimeterSpacing=0;" parent="1" vertex="1">
                    <mxGeometry x="1082" y="8450" width="130" height="10" as="geometry"/>
                </mxCell>
                <mxCell id="tk6b066pp8aDUaOKNzEZ-145" value="&lt;font style=&quot;font-size: 23px&quot;&gt;1-N&lt;/font&gt;" style="text;html=1;strokeColor=none;fillColor=none;align=center;verticalAlign=middle;whiteSpace=wrap;rounded=0;glass=0;opacity=0;" parent="1" vertex="1">
                    <mxGeometry x="957" y="6775" width="80" height="40" as="geometry"/>
                </mxCell>
                <mxCell id="tk6b066pp8aDUaOKNzEZ-147" value="&lt;font style=&quot;font-size: 23px&quot;&gt;id_produit&lt;/font&gt;" style="text;html=1;align=center;verticalAlign=middle;whiteSpace=wrap;rounded=0;strokeWidth=1;perimeterSpacing=0;" parent="1" vertex="1">
                    <mxGeometry x="1082" y="7902.5" width="130" height="10" as="geometry"/>
                </mxCell>
                <mxCell id="tk6b066pp8aDUaOKNzEZ-148" value="&lt;font style=&quot;font-size: 23px&quot;&gt;id_user&lt;/font&gt;" style="text;html=1;align=center;verticalAlign=middle;whiteSpace=wrap;rounded=0;strokeWidth=1;perimeterSpacing=0;" parent="1" vertex="1">
                    <mxGeometry x="1077" y="7960" width="130" height="10" as="geometry"/>
                </mxCell>
                <mxCell id="tk6b066pp8aDUaOKNzEZ-149" value="&lt;span style=&quot;font-size: 21px&quot;&gt;Achetie&lt;/span&gt;" style="text;html=1;strokeColor=none;fillColor=none;align=center;verticalAlign=middle;whiteSpace=wrap;rounded=0;" parent="1" vertex="1">
                    <mxGeometry x="1104" y="6750" width="40" height="20" as="geometry"/>
                </mxCell>
                <mxCell id="tk6b066pp8aDUaOKNzEZ-150" value="&lt;span style=&quot;font-size: 21px&quot;&gt;message&lt;/span&gt;" style="text;html=1;strokeColor=none;fillColor=none;align=center;verticalAlign=middle;whiteSpace=wrap;rounded=0;" parent="1" vertex="1">
                    <mxGeometry x="1157" y="7325" width="40" height="10" as="geometry"/>
                </mxCell>
                <mxCell id="tk6b066pp8aDUaOKNzEZ-152" value="&lt;font style=&quot;font-size: 23px&quot;&gt;1-1&lt;/font&gt;" style="text;html=1;strokeColor=none;fillColor=none;align=center;verticalAlign=middle;whiteSpace=wrap;rounded=0;glass=0;opacity=0;" parent="1" vertex="1">
                    <mxGeometry x="1270" y="7250" width="80" height="40" as="geometry"/>
                </mxCell>
                <mxCell id="130" value="&lt;font style=&quot;font-size: 23px&quot;&gt;Quantity&lt;/font&gt;" style="text;html=1;align=center;verticalAlign=middle;whiteSpace=wrap;rounded=0;strokeWidth=1;perimeterSpacing=0;" parent="1" vertex="1">
                    <mxGeometry x="1305" y="6850" width="130" height="35" as="geometry"/>
                </mxCell>
                <mxCell id="131" value="&lt;font style=&quot;font-size: 23px&quot;&gt;id_user&lt;/font&gt;" style="text;html=1;align=center;verticalAlign=middle;whiteSpace=wrap;rounded=0;strokeWidth=1;perimeterSpacing=0;" parent="1" vertex="1">
                    <mxGeometry x="650" y="8080" width="130" height="10" as="geometry"/>
                </mxCell>
                <mxCell id="132" value="&lt;span style=&quot;font-size: 23px&quot;&gt;role_id&lt;/span&gt;" style="text;html=1;align=center;verticalAlign=middle;whiteSpace=wrap;rounded=0;strokeWidth=1;perimeterSpacing=0;" vertex="1" parent="1">
                    <mxGeometry x="296" y="7913.5" width="130" height="10" as="geometry"/>
                </mxCell>
            </root>
        </mxGraphModel>
    </diagram>
</mxfile>